Coordinates
version=1
nRows=96
nColumns=11
inDegrees=no

Units are S.I. units (second, meters, Newtons, ...)
If the header above contains a line with 'inDegrees', this indicates whether rotational values are in degrees (yes) or radians (no).

endheader
time	pelvis_tilt	pelvis_tx	pelvis_ty	hip_flexion_r	knee_angle_r	ankle_angle_r	hip_flexion_l	knee_angle_l	ankle_angle_l	lumbar_extension
0.01	-0.0384906	0.0866386	1.02515	0.026078	-0.145986	0.226712	0.0650976	-0.181258	0.220378	0
0.02	-0.0385313	0.0866128	1.02528	0.0273438	-0.147419	0.233319	0.0664886	-0.182912	0.219749	0
0.03	-0.0386178	0.0864527	1.02528	0.0282847	-0.148056	0.234425	0.0683925	-0.185839	0.22051	0
0.04	-0.0384391	0.0861203	1.02532	0.0296821	-0.150291	0.233965	0.0718638	-0.192234	0.222855	0
0.05	-0.0389785	0.0856712	1.02525	0.0326268	-0.154428	0.233801	0.0755658	-0.197096	0.223882	0
0.06	-0.0380994	0.085337	1.02532	0.0334303	-0.157457	0.23286	0.0766204	-0.199707	0.223604	0
0.07	-0.0354868	0.0853909	1.02558	0.0309072	-0.15747	0.234948	0.0758871	-0.203472	0.22352	0
0.08	-0.0335649	0.0854762	1.02572	0.0288245	-0.157485	0.236084	0.0764724	-0.208684	0.22488	0
0.09	-0.0328357	0.0854365	1.02571	0.0282863	-0.157977	0.236496	0.077885	-0.21272	0.226429	0
0.1	-0.0327072	0.0851815	1.0257	0.0290868	-0.159367	0.236891	0.0800556	-0.216424	0.227308	0
0.11	-0.0322691	0.0848212	1.02569	0.0296286	-0.160589	0.23691	0.0831378	-0.222365	0.2288	0
0.12	-0.0316122	0.0845174	1.02563	0.0302513	-0.162402	0.238432	0.0859555	-0.228376	0.230859	0
0.13	-0.0299157	0.0842183	1.02566	0.0301203	-0.165255	0.23735	0.087647	-0.234313	0.232392	0
0.14	-0.028309	0.08386	1.02567	0.0314605	-0.171214	0.234246	0.0897741	-0.240655	0.233368	0
0.15	-0.0275469	0.0834863	1.02555	0.0333504	-0.176014	0.234936	0.0924634	-0.246414	0.234944	0
0.16	-0.026707	0.0831355	1.0255	0.0341725	-0.178459	0.237809	0.09467	-0.251777	0.236362	0
0.17	-0.0261806	0.082845	1.02547	0.0351089	-0.180353	0.238595	0.0983182	-0.259568	0.237792	0
0.18	-0.0249688	0.0825558	1.02549	0.0352153	-0.181817	0.241986	0.102619	-0.269595	0.239093	0
0.19	-0.0233278	0.0822122	1.02555	0.0344911	-0.183408	0.242023	0.105278	-0.277499	0.240455	0
0.2	-0.0208817	0.0819416	1.02562	0.0320284	-0.18441	0.238792	0.107358	-0.286737	0.242893	0
0.21	-0.0189723	0.0814632	1.02568	0.0308759	-0.18604	0.239282	0.110989	-0.297936	0.244325	0
0.22	-0.0170205	0.0810551	1.0258	0.0295461	-0.187289	0.244127	0.113795	-0.307565	0.244435	0
0.23	-0.0153732	0.0806084	1.02582	0.0291524	-0.190653	0.246397	0.116631	-0.316327	0.246114	0
0.24	-0.0137244	0.0800809	1.02576	0.0297975	-0.196638	0.245895	0.120613	-0.326957	0.25023	0
0.25	-0.0118299	0.0793502	1.02582	0.0305755	-0.202448	0.246904	0.124514	-0.338232	0.252796	0
0.26	-0.0100181	0.0786281	1.02584	0.0301217	-0.205324	0.249782	0.128308	-0.35011	0.25418	0
0.27	-0.00941056	0.0777856	1.02569	0.0302442	-0.206752	0.253043	0.137115	-0.368551	0.255619	0
0.28	-0.00853404	0.0770693	1.02569	0.0296835	-0.20788	0.253932	0.145214	-0.385257	0.255912	0
0.29	-0.00684734	0.0765911	1.02574	0.0281433	-0.208866	0.254236	0.151897	-0.401398	0.257516	0
0.3	-0.00566111	0.0759793	1.02575	0.0277074	-0.210676	0.254396	0.159058	-0.417743	0.259533	0
0.31	-0.00502473	0.0750083	1.02564	0.0286641	-0.213165	0.255298	0.167951	-0.436031	0.260961	0
0.32	-0.00397478	0.0742637	1.02546	0.0282249	-0.214373	0.258588	0.17622	-0.454035	0.26046	0
0.33	-0.00315425	0.0735764	1.02524	0.0280317	-0.216478	0.261747	0.186044	-0.473538	0.259366	0
0.34	-0.00268463	0.0723836	1.02513	0.0296388	-0.220668	0.26354	0.198659	-0.496778	0.255748	0
0.35	-0.00208254	0.0709126	1.02524	0.0318801	-0.225764	0.264567	0.214858	-0.526108	0.247649	0
0.36	-0.0007534	0.0692233	1.02543	0.0342963	-0.231435	0.265585	0.233646	-0.560277	0.235813	0
0.37	-0.00101132	0.0674283	1.02542	0.0386586	-0.237008	0.266082	0.256896	-0.598547	0.219892	0
0.38	-0.00547241	0.0652428	1.02479	0.0490668	-0.245426	0.268347	0.289321	-0.642825	0.202976	0
0.39	-0.00694999	0.0633002	1.02437	0.0547368	-0.252074	0.271875	0.319209	-0.687657	0.18434	0
0.4	-0.00749338	0.0613504	1.02415	0.0593396	-0.258338	0.27445	0.346702	-0.72939	0.159471	0
0.41	-0.00799848	0.0593832	1.024	0.0639007	-0.263989	0.275582	0.374449	-0.770416	0.134158	0
0.42	-0.00958938	0.0573066	1.0238	0.0696687	-0.269868	0.277186	0.40329	-0.809019	0.11093	0
0.43	-0.0115141	0.0553525	1.02363	0.0748956	-0.274381	0.278315	0.430852	-0.842626	0.0901454	0
0.44	-0.0126509	0.0534675	1.02348	0.0783996	-0.277419	0.279273	0.455475	-0.87015	0.0758974	0
0.45	-0.013509	0.0517735	1.02329	0.0813037	-0.280479	0.280121	0.477732	-0.892236	0.0728809	0
0.46	-0.0127912	0.0502807	1.02334	0.0814829	-0.282073	0.280661	0.495162	-0.908114	0.0757826	0
0.47	-0.0109926	0.0491315	1.0236	0.0788023	-0.280879	0.278221	0.507496	-0.915642	0.0815774	0
0.48	-0.0101229	0.0481556	1.02383	0.0774827	-0.280682	0.273703	0.519508	-0.919083	0.0879262	0
0.49	-0.0106357	0.0470348	1.02396	0.0780313	-0.281807	0.273544	0.533922	-0.920245	0.0918177	0
0.5	-0.0111889	0.0460707	1.02399	0.0779615	-0.281885	0.275399	0.548193	-0.919251	0.0925218	0
0.51	-0.0112535	0.0452662	1.02401	0.0766724	-0.281091	0.274432	0.558623	-0.912033	0.0946069	0
0.52	-0.0117177	0.0445198	1.02418	0.0756815	-0.280383	0.272987	0.567565	-0.898856	0.102952	0
0.53	-0.0117366	0.0440074	1.02435	0.0743058	-0.279959	0.275097	0.57542	-0.882506	0.110687	0
0.54	-0.0103202	0.0438824	1.02444	0.0707299	-0.278749	0.279415	0.579262	-0.86365	0.110951	0
0.55	-0.00832592	0.0439031	1.02452	0.0654823	-0.275525	0.283591	0.57844	-0.838673	0.110278	0
0.56	-0.00684977	0.0438797	1.02451	0.0614187	-0.273732	0.285062	0.57718	-0.810479	0.110556	0
0.57	-0.00579374	0.0438138	1.02449	0.0574363	-0.272025	0.287694	0.576642	-0.780889	0.113909	0
0.58	-0.00526132	0.0436923	1.02451	0.0533755	-0.268778	0.286801	0.575917	-0.750244	0.109916	0
0.59	-0.00562129	0.0437865	1.02432	0.0498929	-0.265108	0.286384	0.573393	-0.716082	0.102849	0
0.6	-0.0065559	0.0441416	1.02403	0.0467647	-0.26196	0.287815	0.567375	-0.676804	0.0942477	0
0.61	-0.0050219	0.04468	1.02396	0.0409155	-0.259248	0.289956	0.557363	-0.636282	0.088226	0
0.62	-0.00149524	0.045372	1.02388	0.0324216	-0.255972	0.293156	0.545096	-0.598164	0.0829336	0
0.63	0.00178155	0.0462417	1.02368	0.0236653	-0.252067	0.295846	0.53302	-0.562853	0.0775942	0
0.64	0.00412035	0.0469026	1.02347	0.0159148	-0.247234	0.299118	0.522629	-0.53022	0.07112	0
0.65	0.00678281	0.0477809	1.02326	0.00771841	-0.242728	0.301553	0.512477	-0.501051	0.0648001	0
0.66	0.00966483	0.0490236	1.02288	-0.00100133	-0.238917	0.304846	0.500466	-0.472683	0.0621247	0
0.67	0.0120595	0.0503365	1.02247	-0.00900966	-0.235904	0.30857	0.490895	-0.45049	0.0601933	0
0.68	0.0140018	0.0515499	1.022	-0.0173306	-0.231414	0.31042	0.481507	-0.430831	0.0601194	0
0.69	0.01616	0.0529113	1.02164	-0.0257315	-0.227034	0.313501	0.470635	-0.41264	0.0586115	0
0.7	0.0172565	0.0542747	1.02112	-0.0326148	-0.223322	0.316516	0.462216	-0.400468	0.0593181	0
0.71	0.017489	0.055962	1.02039	-0.0387642	-0.219929	0.320236	0.454081	-0.391188	0.0625575	0
0.72	0.0189021	0.0578301	1.01977	-0.0455712	-0.218464	0.323902	0.442592	-0.380671	0.0640384	0
0.73	0.0219421	0.0598035	1.0194	-0.0539781	-0.217681	0.329629	0.430296	-0.374212	0.0667253	0
0.74	0.0228466	0.0614901	1.01896	-0.0594981	-0.216357	0.335441	0.423715	-0.375317	0.0699123	0
0.75	0.0225639	0.063127	1.01836	-0.0634456	-0.215585	0.341726	0.418111	-0.377746	0.0718969	0
0.76	0.0227413	0.0651712	1.01772	-0.0686969	-0.215129	0.345204	0.408222	-0.376052	0.0733475	0
0.77	0.0220083	0.0671059	1.01712	-0.0724035	-0.215702	0.346212	0.401992	-0.379081	0.0777671	0
0.78	0.0210027	0.0693527	1.01645	-0.0757926	-0.21658	0.350756	0.39365	-0.380575	0.0850166	0
0.79	0.0212916	0.0717175	1.01578	-0.0812102	-0.216698	0.355521	0.380444	-0.377442	0.0944013	0
0.8	0.0231359	0.0743425	1.01528	-0.0887786	-0.215989	0.358889	0.365599	-0.373153	0.102809	0
0.81	0.0233214	0.0767759	1.0149	-0.0937436	-0.216561	0.361805	0.354282	-0.367712	0.101249	0
0.82	0.0222034	0.0794721	1.01443	-0.0972842	-0.21785	0.364538	0.343307	-0.356522	0.0930476	0
0.83	0.0210069	0.0822327	1.01399	-0.10067	-0.219224	0.367733	0.329585	-0.338354	0.0840922	0
0.84	0.0183346	0.0846893	1.01337	-0.101201	-0.222461	0.369763	0.318634	-0.320431	0.077083	0
0.85	0.0153613	0.0871121	1.01291	-0.101299	-0.2259	0.369739	0.31099	-0.307659	0.0766725	0
0.86	0.0148956	0.0898044	1.01286	-0.104629	-0.229094	0.369644	0.303863	-0.302254	0.0841881	0
0.87	0.0119658	0.0923866	1.01261	-0.103564	-0.235927	0.372574	0.303381	-0.304292	0.0939822	0
0.88	0.00806635	0.0944198	1.01222	-0.0997308	-0.243941	0.376763	0.308274	-0.31411	0.101182	0
0.89	0.00461297	0.0964186	1.01176	-0.0955293	-0.253887	0.380822	0.311671	-0.322897	0.110179	0
0.9	0.00319023	0.098735	1.01142	-0.0934034	-0.264826	0.383256	0.310409	-0.327616	0.120184	0
0.91	0.00295888	0.101037	1.01153	-0.0930351	-0.275245	0.383852	0.30742	-0.330968	0.123164	0
0.92	0.000391468	0.102827	1.01168	-0.0887348	-0.287166	0.383931	0.306584	-0.332472	0.121633	0
0.93	-0.00189056	0.104666	1.01191	-0.0840452	-0.29997	0.38038	0.30328	-0.330271	0.124361	0
0.94	-0.00216941	0.106743	1.01239	-0.0811723	-0.313908	0.374279	0.294235	-0.321854	0.128701	0
0.95	-0.00071073	0.108632	1.01324	-0.0793659	-0.328306	0.368408	0.284502	-0.314953	0.130179	0
0.96	0.00168673	0.110404	1.0143	-0.0779032	-0.343496	0.362786	0.275174	-0.310828	0.130221	0
